#!OML:ASF F:\VICON\USERDATA\INSTALL\rory3\rory3.ASF
:FULLY-SPECIFIED
:DEGREES
2168
root -13.7165 17.7757 9.08935 541.977 -1.14613 173.603
lowerback 11.9471 1.66268 -4.08375
upperback 3.50614 1.25932 -1.45063
thorax -3.0885 0.461955 0.616519
lowerneck -11.4195 5.98173 -13.5136
upperneck 45.264 3.83998 5.0508
head 18.5429 -2.30351 4.81912
rclavicle 7.7526e-015 -1.11319e-014
rhumerus -32.1905 -6.06618 -79.3414
rradius 46.969
rwrist 1.78135
rhand -15.3983 9.56329
rfingers 7.12502
rthumb 10.7805 -20.1401
lclavicle 7.7526e-015 -1.11319e-014
lhumerus -37.5139 13.0151 78.9079
lradius 41.651
lwrist -2.5428
lhand -21.9338 27.0491
lfingers 7.12502
lthumb 4.47272 56.9819
rfemur -32.204 -0.601217 13.3944
rtibia 41.9995
rfoot -11.2173 0.928124
rtoes -15.9218
lfemur 1.29571 -3.7169 -29.2291
ltibia 12.9719
lfoot -11.4439 -9.04041
ltoes 0.346723
2169
root -13.7271 17.7777 9.18961 541.841 -1.17724 173.547
lowerback 12.0267 1.76633 -4.09694
upperback 3.49236 1.38266 -1.53553
thorax -3.14976 0.522457 0.515616
lowerneck -11.1166 6.00895 -13.2284
upperneck 45.2906 3.72958 4.94911
head 18.5051 -2.32421 4.68995
rclavicle 6.65929e-015 -1.47101e-014
rhumerus -32.4029 -6.2262 -79.414
rradius 46.9037
rwrist 2.07688
rhand -15.0461 9.25916
rfingers 7.12502
rthumb 11.1203 -20.4262
lclavicle 6.65929e-015 -1.47101e-014
lhumerus -37.7333 13.0492 78.5182
lradius 42.1436
lwrist -4.0006
lhand -19.3197 31.1415
lfingers 7.12502
lthumb 6.99651 61.0059
rfemur -32.2338 -0.828628 13.31
rtibia 43.7789
rfoot -11.4931 0.2053
rtoes -14.5859
lfemur 0.906604 -3.71442 -29.3115
ltibia 13.3371
lfoot -11.3435 -9.1073
ltoes 0.0628653
2170
root -13.7376 17.7857 9.29205 541.708 -1.28724 173.522
lowerback 12.1896 1.79381 -4.10418
upperback 3.51052 1.40199 -1.55228
thorax -3.22045 0.529936 0.496226
lowerneck -11.0485 6.03126 -13.204
upperneck 45.3335 3.73949 4.91372
head 18.5149 -2.32847 4.6681
rclavicle -9.14409e-015 2.94201e-014
rhumerus -32.5268 -6.25563 -79.4789
rradius 46.8433
rwrist 2.33875
rhand -14.8608 9.1233
rfingers 7.12502
rthumb 11.299 -20.5524
lclavicle -9.14409e-015 2.94201e-014
lhumerus -37.8123 13.0821 78.3986
lradius 41.6438
lwrist -1.57951
lhand -21.953 26.1046
lfingers 7.12502
lthumb 4.45412 56.0377
rfemur -32.2763 -1.2161 13.294
rtibia 45.5958
rfoot -11.491 -0.720746
rtoes -13.9641
lfemur 0.525711 -3.81485 -29.3397
ltibia 13.6483
lfoot -11.2185 -9.22335
ltoes 0.231798
2171
root -13.748 17.7944 9.39026 541.614 -1.28439 173.52
lowerback 12.2512 1.77456 -4.13472
upperback 3.6132 1.362 -1.51317
thorax -3.14704 0.502614 0.560333
lowerneck -11.1892 6.08252 -13.3813
upperneck 45.3383 3.92937 4.91745
head 18.5237 -2.27578 4.73699
rclavicle 1.66979e-014 -7.15625e-015
rhumerus -32.3305 -6.03982 -79.5602
rradius 46.6733
rwrist 2.61072
rhand -14.69 9.23404
rfingers 7.12502
rthumb 11.4637 -20.4325
lclavicle 1.66979e-014 -7.15625e-015
lhumerus -37.7157 13.7772 78.0629
lradius 41.8781
lwrist -2.63243
lhand -19.8112 30.5562
lfingers 7.12502
lthumb 6.52213 60.4358
rfemur -32.3334 -1.5956 13.3126
rtibia 47.4246
rfoot -11.5336 -1.56044
rtoes -13.2942
lfemur 0.145143 -3.83631 -29.3585
ltibia 13.8623
lfoot -10.9916 -9.28497
ltoes 0.780981
2172
root -13.7542 17.7978 9.4813 541.503 -1.14246 173.606
lowerback 12.2839 1.84824 -4.07685
upperback 3.67977 1.45927 -1.50335
thorax -3.09818 0.545694 0.523775
lowerneck -11.2743 6.10862 -13.3038
upperneck 45.4227 4.00554 4.79268
head 18.601 -2.25902 4.68014
rclavicle -4.87022e-015 1.98785e-014
rhumerus -32.1846 -5.96754 -79.6966
rradius 46.3612
rwrist 2.76739
rhand -14.782 9.40282
rfingers 7.12502
rthumb 11.375 -20.2687
lclavicle -4.87022e-015 1.98785e-014
lhumerus -37.7104 14.0111 77.788
lradius 42.0436
lwrist -3.52077
lhand -18.2264 33.0677
lfingers 7.12502
lthumb 8.05181 62.8943
rfemur -32.297 -1.68115 13.4172
rtibia 49.202
rfoot -12.1475 -2.01104
rtoes -13.3669
lfemur -0.280728 -3.75637 -29.2709
ltibia 14.1134
lfoot -10.8805 -9.34436
ltoes 0.990809
2173
root -13.7613 17.8001 9.57576 541.357 -1.15279 173.604
lowerback 12.3352 1.93938 -4.02834
upperback 3.72506 1.57267 -1.57196
thorax -3.08018 0.597202 0.407606
lowerneck -11.2223 6.10626 -12.9948
upperneck 45.508 3.93138 4.64709
head 18.6708 -2.26781 4.54396
rclavicle -9.83984e-015 9.93923e-015
rhumerus -32.2355 -6.20254 -79.8322
rradius 46.0727
rwrist 2.86672
rhand -15.0124 9.57457
rfingers 7.12502
rthumb 11.1528 -20.109
lclavicle -9.83984e-015 9.93923e-015
lhumerus -37.774 13.7151 77.6586
lradius 41.5787
lwrist -1.84164
lhand -20.7086 28.2739
lfingers 7.12502
lthumb 5.65566 58.1784
rfemur -32.1172 -1.89117 13.398
rtibia 50.89
rfoot -12.8416 -2.10126
rtoes -15.2745
lfemur -0.78172 -3.77666 -29.2827
ltibia 14.4878
lfoot -10.998 -9.48229
ltoes -0.256512
2174
root -13.7687 17.8011 9.67432 541.23 -1.26004 173.604
lowerback 12.395 2.04056 -3.93121
upperback 3.73012 1.70621 -1.6731
thorax -3.10661 0.661484 0.226251
lowerneck -10.9639 6.09748 -12.7595
upperneck 45.5247 3.73729 4.71555
head 18.6382 -2.30046 4.49722
rclavicle 6.31141e-015 -2.00773e-014
rhumerus -32.4842 -6.65343 -79.904
rradius 45.9115
rwrist 3.02721
rhand -15.0449 9.85856
rfingers 7.12502
rthumb 11.1215 -19.8267
lclavicle 6.31141e-015 -2.00773e-014
lhumerus -37.8311 13.3079 77.4964
lradius 41.4776
lwrist -1.59422
lhand -20.7086 28.4473
lfingers 7.12502
lthumb 5.65574 58.3519
rfemur -31.8551 -2.22442 13.3544
rtibia 52.459
rfoot -12.963 -1.89522
rtoes -17.1894
lfemur -1.2628 -3.84476 -29.2818
ltibia 14.9791
lfoot -10.9836 -9.61803
ltoes -1.19218
2175
root -13.7733 17.8069 9.77146 541.135 -1.32508 173.736
lowerback 12.426 2.11652 -3.71983
upperback 3.76185 1.82667 -1.71571
thorax -3.08639 0.718832 0.0448736
lowerneck -10.8764 6.08996 -12.7581
upperneck 45.5735 3.61462 4.89789
head 18.651 -2.33014 4.56655
rclavicle -7.05686e-015 2.68359e-014
rhumerus -32.6705 -6.93062 -79.9959
rradius 45.7859
rwrist 3.16427
rhand -15.1163 9.97439
rfingers 7.12502
rthumb 11.0526 -19.7146
lclavicle -7.05686e-015 2.68359e-014
lhumerus -37.7317 13.0464 77.3598
lradius 41.3157
lwrist -1.58283
lhand -20.5758 28.7615
lfingers 7.12502
lthumb 5.78387 58.6626
rfemur -31.5368 -2.42802 13.4499
rtibia 53.9248
rfoot -12.7879 -1.4346
rtoes -15.4767
lfemur -1.67994 -3.9201 -29.1156
ltibia 15.4964
lfoot -10.6349 -9.6701
ltoes -0.494727
2176
root -13.7763 17.8137 9.86699 541.028 -1.3073 174.042
lowerback 12.4903 2.0939 -3.45742
upperback 3.80356 1.83239 -1.60336
thorax -3.07327 0.721132 0.0128708
lowerneck -10.9009 6.17506 -12.9533
upperneck 45.5987 3.77574 4.9928
head 18.6375 -2.2884 4.67364
rclavicle 3.97569e-015 -7.15625e-015
rhumerus -32.6519 -6.74613 -80.098
rradius 45.6082
rwrist 3.16388
rhand -15.0911 9.92303
rfingers 7.12502
rthumb 11.0769 -19.7647
lclavicle 3.97569e-015 -7.15625e-015
lhumerus -37.7883 13.2131 77.2352
lradius 41.3221
lwrist -1.46161
lhand -20.4382 29.7217
lfingers 7.12502
lthumb 5.9168 59.6191
rfemur -31.1629 -2.45325 13.7565
rtibia 55.3146
rfoot -12.8164 -1.17955
rtoes -13.0066
lfemur -2.14357 -3.97055 -28.7616
ltibia 16.0501
lfoot -10.4715 -9.65457
ltoes -0.192416
2177
root -13.7821 17.8164 9.95483 540.84 -1.24747 174.26
lowerback 12.5526 2.05584 -3.32663
upperback 3.8905 1.79595 -1.48206
thorax -3.01532 0.698604 0.0712314
lowerneck -10.978 6.26902 -12.9931
upperneck 45.6015 4.03571 4.83317
head 18.6311 -2.21095 4.64485
rclavicle 2.48481e-015 -3.97569e-015
rhumerus -32.5553 -6.41065 -80.2066
rradius 45.4643
rwrist 3.17107
rhand -15.0884 9.83748
rfingers 7.12502
rthumb 11.0795 -19.8501
lclavicle 2.48481e-015 -3.97569e-015
lhumerus -37.9773 13.5383 77.093
lradius 41.3788
lwrist -1.46442
lhand -20.5752 30.1148
lfingers 7.12502
lthumb 5.7845 60.0159
rfemur -30.6184 -2.53039 13.9601
rtibia 56.6249
rfoot -12.9691 -1.07854
rtoes -12.919
lfemur -2.49024 -3.99167 -28.5428
ltibia 16.5198
lfoot -10.4904 -9.57265
ltoes -0.474316
2178
root -13.787 17.8176 10.0448 540.682 -1.28118 174.338
lowerback 12.6378 2.05057 -3.29596
upperback 3.93298 1.78636 -1.43329
thorax -3.01765 0.691021 0.104758
lowerneck -10.9523 6.29136 -13.0035
upperneck 45.583 4.1054 4.75966
head 18.6066 -2.19263 4.61945
rclavicle -2.41026e-014 3.75703e-014
rhumerus -32.6296 -6.28561 -80.306
rradius 45.3901
rwrist 3.16591
rhand -15.1759 9.67504
rfingers 7.12502
rthumb 10.9951 -20.017
lclavicle -2.41026e-014 3.75703e-014
lhumerus -38.178 13.6251 76.9216
lradius 41.2837
lwrist -1.64318
lhand -20.7337 29.6263
lfingers 7.12502
lthumb 5.63151 59.5314
rfemur -30.0557 -2.66576 13.9964
rtibia 57.84
rfoot -12.9248 -0.938154
rtoes -13.1948
lfemur -2.80396 -4.07289 -28.4688
ltibia 16.8403
lfoot -10.3911 -9.53613
ltoes -0.537159
2179
root -13.7864 17.8222 10.1375 540.563 -1.27197 174.459
lowerback 12.6696 2.1114 -3.26536
upperback 3.99731 1.86574 -1.39037
thorax -2.97033 0.726215 0.120451
lowerneck -10.9715 6.26409 -13.0021
upperneck 45.5546 4.0783 4.79055
head 18.5961 -2.18955 4.6322
rclavicle 1.54058e-015 -5.36719e-015
rhumerus -32.7011 -6.41042 -80.3832
rradius 45.3183
rwrist 3.18619
rhand -15.0545 9.32593
rfingers 7.12502
rthumb 11.1122 -20.3599
lclavicle 1.54058e-015 -5.36719e-015
lhumerus -38.197 13.7316 76.7261
lradius 40.9564
lwrist -2.02198
lhand -20.8107 28.0709
lfingers 7.12502
lthumb 5.5571 57.9781
rfemur -29.4756 -2.63212 14.0983
rtibia 58.9174
rfoot -13.0111 -0.841174
rtoes -12.8902
lfemur -3.12577 -4.0928 -28.3138
ltibia 17.0444
lfoot -10.2045 -9.5387
ltoes -0.749094
2180
root -13.7852 17.832 10.2225 540.401 -1.13417 174.761
lowerback 12.6474 2.18525 -3.07752
upperback 4.08458 1.98635 -1.32027
thorax -2.86636 0.781413 0.0719421
lowerneck -11.056 6.26385 -12.9116
upperneck 45.6363 4.07814 4.73371
head 18.6794 -2.19193 4.59452
rclavicle 8.19987e-015 -1.0138e-014
rhumerus -32.7315 -6.44616 -80.5239
rradius 45.2344
rwrist 3.15919
rhand -14.9688 8.88784
rfingers 7.12502
rthumb 11.1948 -20.7935
lclavicle 8.19987e-015 -1.0138e-014
lhumerus -38.1877 13.9549 76.4668
lradius 40.5376
lwrist -2.45274
lhand -20.8953 26.772
lfingers 7.12502
lthumb 5.47541 56.6813
rfemur -28.7531 -2.57717 14.4218
rtibia 59.8609
rfoot -13.1264 -0.774416
rtoes -14.1064
lfemur -3.32639 -4.07956 -27.9692
ltibia 17.1434
lfoot -10.0782 -9.47247
ltoes -1.10463
